<svg version="1.1" viewBox="0.0 0.0 411.01837270341207 353.3490813648294" fill="none" stroke="none" stroke-linecap="square" stroke-miterlimit="10" xmlns:xlink="http://www.w3.org/1999/xlink" xmlns="http://www.w3.org/2000/svg"><clipPath id="p.0"><path d="m0 0l411.01837 0l0 353.3491l-411.01837 0l0 -353.3491z" clip-rule="nonzero"/></clipPath><g clip-path="url(#p.0)"><path fill="#000000" fill-opacity="0.0" d="m0 0l411.01837 0l0 353.3491l-411.01837 0z" fill-rule="evenodd"/><path fill="#2fa4e7" d="m0 0l411.02362 0l0 353.35434l-411.02362 0z" fill-rule="evenodd"/><path fill="#ffffff" d="m148.91728 254.00528l0 -159.32812l-19.875 -3.453125l0 -16.671875l40.265625 0q6.8125 0 13.140625 -0.390625q6.328125 -0.40625 13.921875 -0.875q7.609375 -0.46875 18.28125 -0.328125q28.390625 0 44.312515 6.859375q15.9375 6.859375 22.46875 19.859375q6.546875 13.0 6.546875 31.8125q0 22.265625 -9.40625 38.125q-9.390625 15.859375 -27.062515 24.328125q-17.671875 8.46875 -42.203125 8.46875q-4.0 0 -8.53125 -0.125q-4.53125 -0.140625 -7.875 -0.34375q-3.328125 -0.203125 -4.515625 -0.328125l0 52.265625l35.59375 2.796875l0 16.0l-96.0 0l0 -16.0l20.9375 -2.671875zm39.328125 -69.453125q2.671875 0.53125 7.859375 0.859375q5.203125 0.328125 12.671875 0.328125q10.671875 0 19.40625 -4.859375q8.734375 -4.859375 14.0 -16.53125q5.265625 -11.671875 5.265625 -32.203125q0 -15.203125 -4.203125 -24.59375q-4.203125 -9.40625 -12.8125 -13.796875q-8.59375 -4.40625 -21.78125 -4.40625q-5.203125 0 -8.8125 0.34375q-3.59375 0.328125 -6.328125 0.65625q-2.734375 0.328125 -5.265625 0.609375l0 93.59375z" fill-rule="nonzero"/></g></svg>